<svg width="724.4500244140625px" height="121.60000610351562px" xmlns="http://www.w3.org/2000/svg" viewBox="-112.22501220703123 14.199996948242188 724.4500244140625 121.60000610351562" style="background: rgba(0, 0, 0, 0);" preserveAspectRatio="xMidYMid"><defs><filter id="editing-extrude-glow"><feFlood flood-color="#333333" result="flood-1"></feFlood><feMorphology operator="erode" radius="1" in="SourceAlpha" result="erode"></feMorphology><feComposite operator="in" in="flood-1" in2="erode" result="comp1"></feComposite><feConvolveMatrix order="3,3" divisor="1" in="comp1" result="convolve" kernelMatrix="0 0 0 1 1 1 0 0 0"></feConvolveMatrix><feOffset dx="-3" dy="0" in="convolve" result="extrude"></feOffset><feComposite operator="in" in="flood-1" in2="extrude" result="comp-extrude"></feComposite><feFlood flood-color="#000000" result="flood-2"></feFlood><feComposite operator="in" in="flood-2" in2="SourceAlpha" result="comp2"></feComposite><feMorphology operator="dilate" radius="1" in="comp2" result="dilate"></feMorphology><feOffset dx="-4.5" dy="0" in="dilate" result="offset"></feOffset><feGaussianBlur in="offset" stdDeviation="5.8" result="blur"></feGaussianBlur><feComponentTransfer in="blur" result="shadow"><feFuncA type="linear" slope="0.8" intercept="-0.2"></feFuncA></feComponentTransfer><feMerge><feMergeNode in="shadow"></feMergeNode><feMergeNode in="comp-extrude"></feMergeNode><feMergeNode in="SourceGraphic"></feMergeNode></feMerge></filter></defs><g filter="url(#editing-extrude-glow)"><g transform="translate(-6.6538591384887695, 104.46999740600586)"><path d="M29.18 1.28L29.18 1.28L29.18 1.28Q20.99 1.28 20.22-10.37L20.22-10.37L9.22-10.37L9.22-10.37Q7.94-7.42 7.04-4.86L7.04-4.86L5.38 0L-3.58 0L16.58-42.24L30.34-42.24L33.02-11.14L33.02-11.14Q33.66-4.42 36.22-2.43L36.22-2.43L36.22-2.43Q34.37 1.28 29.18 1.28ZM14.72-23.17L11.20-15.04L20.03-15.04L19.26-31.49L19.26-33.22L14.72-23.17ZM67.01 1.28L67.01 1.28L67.01 1.28Q59.26 1.28 59.26-4.74L59.26-4.74L59.26-4.74Q59.33-6.40 59.84-9.22L59.84-9.22L60.99-15.10L60.99-15.10Q62.72-23.42 62.72-25.28L62.72-25.28L62.72-25.28Q62.72-28.99 60.54-28.99L60.54-28.99L60.54-28.99Q56.90-28.99 54.98-19.46L54.98-19.46L51.20 0L38.34 1.28L44.99-32.70L55.49-33.92L54.46-27.65L54.46-27.65Q57.47-33.92 66.69-33.92L66.69-33.92L66.69-33.92Q71.17-33.92 73.06-32.03L73.06-32.03L73.06-32.03Q74.94-30.14 74.94-25.92L74.94-25.92L74.94-25.92Q74.94-21.95 72.90-12.67L72.90-12.67L72.90-12.67Q71.94-8.51 71.94-6.94L71.94-6.94L71.94-6.94Q71.94-5.38 72.80-4.48L72.80-4.48L72.80-4.48Q73.66-3.58 74.94-3.46L74.94-3.46L74.94-3.46Q74.30-1.28 72.10 0L72.10 0L72.10 0Q69.89 1.28 67.01 1.28ZM94.02 1.28L94.02 1.28L94.02 1.28Q79.94 1.28 79.94-11.97L79.94-11.97L79.94-11.97Q79.94-21.38 85.12-27.46L85.12-27.46L85.12-27.46Q90.62-33.92 100.16-33.92L100.16-33.92L100.16-33.92Q107.07-33.92 110.59-30.72L110.59-30.72L110.59-30.72Q114.11-27.52 114.11-20.80L114.11-20.80L114.11-20.80Q114.11-10.56 108.61-4.61L108.61-4.61L108.61-4.61Q103.23 1.28 94.02 1.28ZM95.68-26.56L95.68-26.56L95.68-26.56Q94.91-24.83 94.30-22.24L94.30-22.24L94.30-22.24Q93.70-19.65 92.93-15.55L92.93-15.55L92.93-15.55Q92.16-11.46 92.16-6.40L92.16-6.40L92.16-6.40Q92.16-4.74 92.70-3.65L92.70-3.65L92.70-3.65Q93.25-2.56 94.72-2.56L94.72-2.56L94.72-2.56Q96.19-2.56 97.12-3.26L97.12-3.26L97.12-3.26Q98.05-3.97 98.75-5.63L98.75-5.63L98.75-5.63Q100.03-8.58 101.06-14.05L101.06-14.05L101.06-14.05Q102.08-19.52 102.18-21.89L102.18-21.89L102.18-21.89Q102.27-24.26 102.27-26.02L102.27-26.02L102.27-26.02Q102.27-27.78 101.76-28.93L101.76-28.93L101.76-28.93Q101.25-30.08 99.81-30.08L99.81-30.08L99.81-30.08Q98.37-30.08 97.41-29.18L97.41-29.18L97.41-29.18Q96.45-28.29 95.68-26.56ZM138.24-7.23L138.24-7.23L138.24-7.23Q134.91-3.78 128.83-3.78L128.83-3.78L128.83-3.78Q121.22-3.78 119.62-9.34L119.62-9.34L119.62-9.34Q119.10-11.01 119.10-12.86L119.10-12.86L119.10-12.86Q119.10-14.72 119.49-16.64L119.49-16.64L122.50-32.64L135.49-33.92L131.97-15.30L131.97-15.30Q131.84-14.46 131.65-13.57L131.65-13.57L131.65-13.57Q131.46-12.67 131.46-11.74L131.46-11.74L131.46-11.74Q131.46-10.82 131.78-10.21L131.78-10.21L131.78-10.21Q132.10-9.60 132.54-9.22L132.54-9.22L132.54-9.22Q133.31-8.70 134.69-8.70L134.69-8.70L134.69-8.70Q136.06-8.70 137.25-10.37L137.25-10.37L137.25-10.37Q138.43-12.03 139.01-14.91L139.01-14.91L142.53-32.64L155.14-33.92L150.34-8.77L150.34-8.77Q147.97 3.52 143.10 8.38L143.10 8.38L143.10 8.38Q140.61 10.88 137.38 11.87L137.38 11.87L137.38 11.87Q134.14 12.86 129.98 12.86L129.98 12.86L129.98 12.86Q123.26 12.86 119.42 10.75L119.42 10.75L119.42 10.75Q115.58 8.64 115.58 5.12L115.58 5.12L115.58 5.12Q115.58 2.50 117.57 0.99L117.57 0.99L117.57 0.99Q119.55-0.51 122.62-0.51L122.62-0.51L122.62-0.51Q125.31-0.51 127.36 0.64L127.36 0.64L127.36 0.64Q128.58 1.34 129.15 2.24L129.15 2.24L129.15 2.24Q127.68 3.52 127.68 5.63L127.68 5.63L127.68 5.63Q127.68 8.45 130.24 8.45L130.24 8.45L130.24 8.45Q134.46 8.45 136.90-1.28L136.90-1.28L136.90-1.28Q137.60-4.16 138.24-7.23ZM203.52 1.28L203.52 1.28L203.52 1.28Q195.78 1.28 195.78-4.74L195.78-4.74L195.78-4.74Q195.78-7.36 196.90-12.45L196.90-12.45L196.90-12.45Q198.02-17.54 198.40-19.58L198.40-19.58L198.40-19.58Q199.30-24.26 199.30-25.73L199.30-25.73L199.30-25.73Q199.30-28.99 196.86-28.99L196.86-28.99L196.86-28.99Q195.26-28.99 193.73-26.78L193.73-26.78L193.73-26.78Q192.19-24.58 191.49-20.16L191.49-20.16L187.52 0L175.04 1.28L178.50-16.13L178.50-16.13Q179.07-19.01 179.58-22.27L179.58-22.27L179.58-22.27Q180.10-25.54 180.10-26.05L180.10-26.05L180.10-26.05Q180.10-28.99 177.92-28.99L177.92-28.99L177.92-28.99Q176.45-28.99 174.85-26.82L174.85-26.82L174.85-26.82Q173.25-24.64 172.35-20.16L172.35-20.16L168.45 0L155.84 1.28L162.56-32.64L172.99-33.92L171.90-27.46L171.90-27.46Q173.57-30.91 176.64-32.42L176.64-32.42L176.64-32.42Q179.71-33.92 184.51-33.92L184.51-33.92L184.51-33.92Q187.26-33.92 189.06-32.58L189.06-32.58L189.06-32.58Q190.85-31.23 191.42-29.06L191.42-29.06L191.42-29.06Q192.51-31.30 195.30-32.61L195.30-32.61L195.30-32.61Q198.08-33.92 201.50-33.92L201.50-33.92L201.50-33.92Q204.93-33.92 206.62-33.18L206.62-33.18L206.62-33.18Q208.32-32.45 209.34-31.23L209.34-31.23L209.34-31.23Q211.07-28.99 211.07-24.90L211.07-24.90L211.07-24.90Q211.07-20.86 209.34-12.48L209.34-12.48L209.34-12.48Q208.45-8.38 208.45-6.88L208.45-6.88L208.45-6.88Q208.45-5.38 209.31-4.48L209.31-4.48L209.31-4.48Q210.18-3.58 211.46-3.46L211.46-3.46L211.46-3.46Q210.82-1.28 208.61 0L208.61 0L208.61 0Q206.40 1.28 203.52 1.28ZM219.17-1.92L219.17-1.92L219.17-1.92Q217.66-3.58 216.99-6.21L216.99-6.21L216.99-6.21Q216.32-8.83 216.32-13.12L216.32-13.12L216.32-13.12Q216.32-17.41 217.79-21.31L217.79-21.31L217.79-21.31Q219.26-25.22 221.95-28.03L221.95-28.03L221.95-28.03Q227.46-33.92 236.54-33.92L236.54-33.92L236.54-33.92Q239.81-33.92 242.18-32.83L242.18-32.83L253.12-33.92L248.38-8.96L248.38-8.96Q248.19-8.19 248.19-6.78L248.19-6.78L248.19-6.78Q248.19-5.38 249.06-4.48L249.06-4.48L249.06-4.48Q249.92-3.58 251.20-3.46L251.20-3.46L251.20-3.46Q250.56-1.28 248.22 0L248.22 0L248.22 0Q245.89 1.28 243.26 1.28L243.26 1.28L243.26 1.28Q240.64 1.28 238.88 0.29L238.88 0.29L238.88 0.29Q237.12-0.70 236.61-2.37L236.61-2.37L236.61-2.37Q235.58-0.77 233.41 0.26L233.41 0.26L233.41 0.26Q231.23 1.28 228.32 1.28L228.32 1.28L228.32 1.28Q225.41 1.28 223.04 0.51L223.04 0.51L223.04 0.51Q220.67-0.26 219.17-1.92ZM232.67-27.90L232.67-27.90L232.67-27.90Q231.94-26.75 231.30-24.80L231.30-24.80L231.30-24.80Q230.66-22.85 229.60-17.63L229.60-17.63L229.60-17.63Q228.54-12.42 228.54-8.70L228.54-8.70L228.54-8.70Q228.54-4.99 229.12-3.90L229.12-3.90L229.12-3.90Q229.70-2.82 230.72-2.82L230.72-2.82L230.72-2.82Q232.77-2.82 234.27-4.77L234.27-4.77L234.27-4.77Q235.78-6.72 236.35-10.18L236.35-10.18L239.74-28.93L239.74-28.93Q238.40-30.08 236.83-30.08L236.83-30.08L236.83-30.08Q235.26-30.08 234.34-29.57L234.34-29.57L234.34-29.57Q233.41-29.06 232.67-27.90ZM275.71-22.46L275.71-22.46L275.71-22.46Q276.61-24.83 276.61-26.88L276.61-26.88L276.61-26.88Q276.61-30.66 273.54-30.66L273.54-30.66L273.54-30.66Q271.94-30.66 270.62-29.22L270.62-29.22L270.62-29.22Q269.31-27.78 269.31-25.98L269.31-25.98L269.31-25.98Q269.31-24.70 270.34-23.68L270.34-23.68L270.34-23.68Q271.81-22.27 275.58-19.97L275.58-19.97L275.58-19.97Q279.36-17.66 280.80-15.78L280.80-15.78L280.80-15.78Q282.24-13.89 282.24-11.30L282.24-11.30L282.24-11.30Q282.24-8.70 280.99-6.34L280.99-6.34L280.99-6.34Q279.74-3.97 277.50-2.30L277.50-2.30L277.50-2.30Q272.70 1.28 265.02 1.28L265.02 1.28L265.02 1.28Q260.86 1.28 257.66-0.90L257.66-0.90L257.66-0.90Q254.46-3.01 254.46-5.50L254.46-5.50L254.46-5.50Q254.46-8 256.29-9.47L256.29-9.47L256.29-9.47Q258.11-10.94 260.80-10.94L260.80-10.94L260.80-10.94Q263.49-10.94 265.15-9.92L265.15-9.92L265.15-9.92Q264.32-7.81 264.32-6.40L264.32-6.40L264.32-6.40Q264.32-2.18 267.90-2.18L267.90-2.18L267.90-2.18Q269.44-2.18 270.46-3.14L270.46-3.14L270.46-3.14Q271.49-4.10 271.49-5.76L271.49-5.76L271.49-5.76Q271.49-9.02 265.98-12.48L265.98-12.48L265.98-12.48Q261.50-15.42 260.48-16.58L260.48-16.58L260.48-16.58Q258.75-18.62 258.75-21.18L258.75-21.18L258.75-21.18Q258.75-23.74 259.97-26.18L259.97-26.18L259.97-26.18Q261.18-28.61 263.42-30.34L263.42-30.34L263.42-30.34Q268.10-33.92 276.22-33.92L276.22-33.92L276.22-33.92Q280.38-33.92 282.85-32.26L282.85-32.26L282.85-32.26Q285.31-30.59 285.31-27.78L285.31-27.78L285.31-27.78Q285.31-24.96 283.62-23.36L283.62-23.36L283.62-23.36Q281.92-21.76 278.85-21.76L278.85-21.76L278.85-21.76Q276.74-21.76 275.71-22.46ZM306.82-22.46L306.82-22.46L306.82-22.46Q307.71-24.83 307.71-26.88L307.71-26.88L307.71-26.88Q307.71-30.66 304.64-30.66L304.64-30.66L304.64-30.66Q303.04-30.66 301.73-29.22L301.73-29.22L301.73-29.22Q300.42-27.78 300.42-25.98L300.42-25.98L300.42-25.98Q300.42-24.70 301.44-23.68L301.44-23.68L301.44-23.68Q302.91-22.27 306.69-19.97L306.69-19.97L306.69-19.97Q310.46-17.66 311.90-15.78L311.90-15.78L311.90-15.78Q313.34-13.89 313.34-11.30L313.34-11.30L313.34-11.30Q313.34-8.70 312.10-6.34L312.10-6.34L312.10-6.34Q310.85-3.97 308.61-2.30L308.61-2.30L308.61-2.30Q303.81 1.28 296.13 1.28L296.13 1.28L296.13 1.28Q291.97 1.28 288.77-0.90L288.77-0.90L288.77-0.90Q285.57-3.01 285.57-5.50L285.57-5.50L285.57-5.50Q285.57-8 287.39-9.47L287.39-9.47L287.39-9.47Q289.22-10.94 291.90-10.94L291.90-10.94L291.90-10.94Q294.59-10.94 296.26-9.92L296.26-9.92L296.26-9.92Q295.42-7.81 295.42-6.40L295.42-6.40L295.42-6.40Q295.42-2.18 299.01-2.18L299.01-2.18L299.01-2.18Q300.54-2.18 301.57-3.14L301.57-3.14L301.57-3.14Q302.59-4.10 302.59-5.76L302.59-5.76L302.59-5.76Q302.59-9.02 297.09-12.48L297.09-12.48L297.09-12.48Q292.61-15.42 291.58-16.58L291.58-16.58L291.58-16.58Q289.86-18.62 289.86-21.18L289.86-21.18L289.86-21.18Q289.86-23.74 291.07-26.18L291.07-26.18L291.07-26.18Q292.29-28.61 294.53-30.34L294.53-30.34L294.53-30.34Q299.20-33.92 307.33-33.92L307.33-33.92L307.33-33.92Q311.49-33.92 313.95-32.26L313.95-32.26L313.95-32.26Q316.42-30.59 316.42-27.78L316.42-27.78L316.42-27.78Q316.42-24.96 314.72-23.36L314.72-23.36L314.72-23.36Q313.02-21.76 309.95-21.76L309.95-21.76L309.95-21.76Q307.84-21.76 306.82-22.46ZM318.85 7.23L318.85 7.23L318.85 7.23Q318.85 5.12 320.19 3.81L320.19 3.81L320.19 3.81Q321.54 2.50 323.58 2.50L323.58 2.50L350.53 2.50L350.53 2.50Q350.85 3.58 350.85 4.42L350.85 4.42L350.85 4.42Q350.85 6.34 349.54 7.68L349.54 7.68L349.54 7.68Q348.22 9.02 345.54 9.02L345.54 9.02L319.10 9.02L319.10 9.02Q318.85 8.19 318.85 7.23ZM396.10-13.25L396.10-13.25L396.10-13.25Q397.76-12.03 397.76-9.44L397.76-9.44L397.76-9.44Q397.76-6.85 396.64-5.02L396.64-5.02L396.64-5.02Q395.52-3.20 393.34-1.79L393.34-1.79L393.34-1.79Q388.67 1.22 380.51 1.22L380.51 1.22L380.51 1.22Q372.35 1.22 367.90-3.04L367.90-3.04L367.90-3.04Q363.46-7.30 363.46-14.85L363.46-14.85L363.46-14.85Q363.46-25.54 369.02-33.66L369.02-33.66L369.02-33.66Q373.25-39.68 380.80-42.24L380.80-42.24L380.80-42.24Q384.70-43.52 388.54-43.52L388.54-43.52L388.54-43.52Q392.38-43.52 394.75-43.01L394.75-43.01L394.75-43.01Q397.12-42.50 398.91-41.47L398.91-41.47L398.91-41.47Q402.82-39.23 402.82-35.65L402.82-35.65L402.82-35.65Q402.82-32.38 399.74-29.95L399.74-29.95L399.74-29.95Q396.93-27.78 394.62-27.78L394.62-27.78L394.62-27.78Q392.32-27.78 391.36-28.10L391.36-28.10L391.36-28.10Q391.62-30.40 391.62-31.90L391.62-31.90L391.62-31.90Q391.62-33.41 391.55-34.50L391.55-34.50L391.55-34.50Q391.49-35.58 391.17-36.61L391.17-36.61L391.17-36.61Q390.53-38.98 388.58-38.98L388.58-38.98L388.58-38.98Q386.62-38.98 384.67-37.15L384.67-37.15L384.67-37.15Q382.72-35.33 381.06-32.26L381.06-32.26L381.06-32.26Q377.28-25.28 377.28-17.02L377.28-17.02L377.28-17.02Q377.28-13.06 379.52-10.78L379.52-10.78L379.52-10.78Q381.76-8.51 386.56-8.51L386.56-8.51L386.56-8.51Q390.14-8.51 393.54-10.88L393.54-10.88L393.54-10.88Q395.01-11.90 396.10-13.25ZM417.02 1.28L417.02 1.28L417.02 1.28Q402.94 1.28 402.94-11.97L402.94-11.97L402.94-11.97Q402.94-21.38 408.13-27.46L408.13-27.46L408.13-27.46Q413.63-33.92 423.17-33.92L423.17-33.92L423.17-33.92Q430.08-33.92 433.60-30.72L433.60-30.72L433.60-30.72Q437.12-27.52 437.12-20.80L437.12-20.80L437.12-20.80Q437.12-10.56 431.62-4.61L431.62-4.61L431.62-4.61Q426.24 1.28 417.02 1.28ZM418.69-26.56L418.69-26.56L418.69-26.56Q417.92-24.83 417.31-22.24L417.31-22.24L417.31-22.24Q416.70-19.65 415.94-15.55L415.94-15.55L415.94-15.55Q415.17-11.46 415.17-6.40L415.17-6.40L415.17-6.40Q415.17-4.74 415.71-3.65L415.71-3.65L415.71-3.65Q416.26-2.56 417.73-2.56L417.73-2.56L417.73-2.56Q419.20-2.56 420.13-3.26L420.13-3.26L420.13-3.26Q421.06-3.97 421.76-5.63L421.76-5.63L421.76-5.63Q423.04-8.58 424.06-14.05L424.06-14.05L424.06-14.05Q425.09-19.52 425.18-21.89L425.18-21.89L425.18-21.89Q425.28-24.26 425.28-26.02L425.28-26.02L425.28-26.02Q425.28-27.78 424.77-28.93L424.77-28.93L424.77-28.93Q424.26-30.08 422.82-30.08L422.82-30.08L422.82-30.08Q421.38-30.08 420.42-29.18L420.42-29.18L420.42-29.18Q419.46-28.29 418.69-26.56ZM461.06-33.92L461.06-33.92L461.06-33.92Q463.36-33.92 465.15-33.41L465.15-33.41L465.15-33.41Q465.22-33.66 465.34-34.37L465.34-34.37L465.66-36.35L465.66-36.35Q465.92-37.63 466.30-39.74L466.30-39.74L467.33-44.80L480.06-46.08L472.96-8.96L472.96-8.96Q472.90-8.58 472.90-7.94L472.90-7.94L472.90-6.91L472.90-6.91Q472.90-5.50 473.60-4.45L473.60-4.45L473.60-4.45Q474.30-3.39 475.46-3.39L475.46-3.39L475.46-3.39Q474.18-0.38 470.27 0.90L470.27 0.90L470.27 0.90Q468.93 1.28 467.04 1.28L467.04 1.28L467.04 1.28Q465.15 1.28 463.42 0.29L463.42 0.29L463.42 0.29Q461.70-0.70 461.18-2.37L461.18-2.37L461.18-2.37Q460.16-0.70 458.11 0.29L458.11 0.29L458.11 0.29Q456.06 1.28 453.09 1.28L453.09 1.28L453.09 1.28Q450.11 1.28 447.65 0.51L447.65 0.51L447.65 0.51Q445.18-0.26 443.65-1.92L443.65-1.92L443.65-1.92Q440.83-5.18 440.83-12.61L440.83-12.61L440.83-12.61Q440.83-22.21 446.46-28.03L446.46-28.03L446.46-28.03Q452.10-33.92 461.06-33.92ZM460.61-30.08L460.61-30.08L460.61-30.08Q458.24-30.08 456.96-27.52L456.96-27.52L456.96-27.52Q455.68-24.96 454.37-18.62L454.37-18.62L454.37-18.62Q453.06-12.29 453.06-6.59L453.06-6.59L453.06-6.59Q453.06-2.69 455.36-2.69L455.36-2.69L455.36-2.69Q457.41-2.69 458.85-4.74L458.85-4.74L458.85-4.74Q460.29-6.78 460.86-10.18L460.86-10.18L464.32-28.93L464.32-28.93Q462.98-30.08 460.61-30.08ZM506.82-10.82L506.82-10.82L506.82-10.82Q508.42-9.73 508.42-7.33L508.42-7.33L508.42-7.33Q508.42-4.93 507.20-3.39L507.20-3.39L507.20-3.39Q505.98-1.86 504-0.83L504-0.83L504-0.83Q499.90 1.28 495.49 1.28L495.49 1.28L495.49 1.28Q491.07 1.28 488.48 0.32L488.48 0.32L488.48 0.32Q485.89-0.64 484.16-2.43L484.16-2.43L484.16-2.43Q480.77-5.82 480.77-12.03L480.77-12.03L480.77-12.03Q480.77-21.70 486.02-27.58L486.02-27.58L486.02-27.58Q491.65-33.92 501.44-33.92L501.44-33.92L501.44-33.92Q507.52-33.92 510.53-31.36L510.53-31.36L510.53-31.36Q512.77-29.44 512.77-26.30L512.77-26.30L512.77-26.30Q512.77-15.04 493.31-15.04L493.31-15.04L493.31-15.04Q493.06-13.38 493.06-11.97L493.06-11.97L493.06-11.97Q493.06-9.02 494.37-7.90L494.37-7.90L494.37-7.90Q495.68-6.78 498.11-6.78L498.11-6.78L498.11-6.78Q500.54-6.78 503.14-7.90L503.14-7.90L503.14-7.90Q505.73-9.02 506.82-10.82ZM493.76-17.79L493.76-17.79L493.76-17.79Q498.30-17.79 500.93-20.61L500.93-20.61L500.93-20.61Q503.55-23.30 503.55-27.58L503.55-27.58L503.55-27.58Q503.55-29.06 503.01-29.86L503.01-29.86L503.01-29.86Q502.46-30.66 501.38-30.66L501.38-30.66L501.38-30.66Q500.29-30.66 499.36-30.24L499.36-30.24L499.36-30.24Q498.43-29.82 497.47-28.42L497.47-28.42L497.47-28.42Q495.10-25.22 493.76-17.79Z" fill="#eb6c6c"></path></g></g><style>text {
  font-size: 64px;
  font-family: Arial Black;
  dominant-baseline: central;
  text-anchor: middle;
}</style></svg>