<svg width="720.9875px" height="174.4000061035156px" xmlns="http://www.w3.org/2000/svg" viewBox="-110.49374999999998 -12.200003051757804 720.9875 174.4000061035156" style="background: rgb(0, 0, 0);" preserveAspectRatio="xMidYMid"><defs><filter id="editing-extrusion" x="-100%" y="-100%" width="300%" height="300%"><feFlood result="color1" flood-color="#000000"></feFlood><feConvolveMatrix order="8,8" divisor="1" kernelMatrix="1 0 0 0 0 0 0 0 0 1 0 0 0 0 0 0 0 0 1 0 0 0 0 0 0 0 0 1 0 0 0 0 0 0 0 0 1 0 0 0 0 0 0 0 0 1 0 0 0 0 0 0 0 0 1 0 0 0 0 0 0 0 0 1" in="SourceAlpha" result="extrude"></feConvolveMatrix><feComposite in="color1" in2="extrude" result="comp-extrude" operator="in"></feComposite><feOffset dx="4" dy="4" in="comp-extrude" result="offset-extrude"></feOffset><feMerge><feMergeNode in="offset-extrude"></feMergeNode><feMergeNode in="SourceGraphic"></feMergeNode></feMerge></filter></defs><g filter="url(#editing-extrusion)"><g transform="translate(-5.191188335418701, 108.9999942779541)"><path d="M44.23 1.94L44.23 1.94L44.23 1.94Q31.82 1.94 30.65-15.71L30.65-15.71L13.97-15.71L13.97-15.71Q12.03-11.25 10.67-7.37L10.67-7.37L8.15 0L-5.43 0L25.12-64.02L45.98-64.02L50.05-16.88L50.05-16.88Q51.02-6.69 54.90-3.69L54.90-3.69L54.90-3.69Q52.09 1.94 44.23 1.94ZM22.31-35.11L16.98-22.80L30.36-22.80L29.20-47.72L29.20-50.34L22.31-35.11ZM70.52 0L59.85 0L71.49-64.02L92.34-64.02L107.48-19.98L115.53-64.02L126.29-63.92L114.46 0L92.25 0L78.28-42.39L70.52 0ZM130.17-23.67L130.17-23.67L130.17-23.67Q130.17-42.00 139.68-53.54L139.68-53.54L139.68-53.54Q149.77-66.06 167.33-66.06L167.33-66.06L167.33-66.06Q180.03-66.06 186.43-59.90L186.43-59.90L186.43-59.90Q192.84-53.74 192.84-40.74L192.84-40.74L192.84-40.74Q192.84-20.95 182.75-9.41L182.75-9.41L182.75-9.41Q172.76 1.94 155.98 1.94L155.98 1.94L155.98 1.94Q142.88 1.94 136.53-4.61L136.53-4.61L136.53-4.61Q130.17-11.16 130.17-23.67ZM155.69-43.75L155.69-43.75L155.69-43.75Q151.32-26.29 151.32-12.51L151.32-12.51L151.32-12.51Q151.32-9.21 152.44-7.08L152.44-7.08L152.44-7.08Q153.55-4.95 156.51-4.95L156.51-4.95L156.51-4.95Q159.47-4.95 161.31-6.35L161.31-6.35L161.31-6.35Q163.15-7.76 164.61-10.96L164.61-10.96L164.61-10.96Q166.94-16.20 169.12-27.31L169.12-27.31L169.12-27.31Q171.30-38.41 171.50-43.02L171.50-43.02L171.50-43.02Q171.69-47.63 171.69-51.12L171.69-51.12L171.69-51.12Q171.69-54.61 170.62-56.84L170.62-56.84L170.62-56.84Q169.56-59.07 166.69-59.07L166.69-59.07L166.69-59.07Q163.83-59.07 161.89-57.33L161.89-57.33L161.89-57.33Q158.30-54.03 155.69-43.75ZM204.67 0L210.30-28.52L210.30-28.52Q207.48-54.80 197.59-60.43L197.59-60.43L197.59-60.43Q199.63-62.95 202.92-64.36L202.92-64.36L202.92-64.36Q206.22-65.77 210.20-65.77L210.20-65.77L210.20-65.77Q214.18-65.77 217.18-64.36L217.18-64.36L217.18-64.36Q220.19-62.95 222.13-59.95L222.13-59.95L222.13-59.95Q225.82-54.22 225.82-40.55L225.82-40.55L225.82-33.56L225.82-33.56Q231.64-50.63 237.46-58.01L237.46-58.01L237.46-58.01Q243.37-65.57 250.75-65.57L250.75-65.57L250.75-65.57Q253.66-65.57 255.60-64.07L255.60-64.07L255.60-64.07Q257.54-62.57 258.50-60.33L258.50-60.33L258.50-60.33Q251.04-57.04 243.86-47.53L243.86-47.53L243.86-47.53Q236.68-38.02 232.02-24.73L232.02-24.73L226.30 0L204.67 0ZM261.51 0L250.36 0L267.91-64.02L288.19-64.02L292.65-27.45L310.69-64.02L327.67-64.02L329.41-16.10L329.41-16.10Q329.80-6.60 334.46-3.69L334.46-3.69L334.46-3.69Q333.39-1.75 330.29 0.10L330.29 0.10L330.29 0.10Q327.18 1.94 323.06 1.94L323.06 1.94L323.06 1.94Q318.94 1.94 316.51 0.78L316.51 0.78L316.51 0.78Q314.09-0.39 312.73-2.33L312.73-2.33L312.73-2.33Q310.30-5.82 310.30-12.51L310.30-12.51L310.30-42.49L291.19 0L279.17 0L272.38-43.55L261.51 0ZM381.21 1.94L381.21 1.94L381.21 1.94Q368.79 1.94 367.63-15.71L367.63-15.71L350.95-15.71L350.95-15.71Q349.01-11.25 347.65-7.37L347.65-7.37L345.13 0L331.55 0L362.10-64.02L382.96-64.02L387.03-16.88L387.03-16.88Q388-6.69 391.88-3.69L391.88-3.69L391.88-3.69Q389.07 1.94 381.21 1.94ZM359.29-35.11L353.95-22.80L367.34-22.80L366.18-47.72L366.18-50.34L359.29-35.11ZM435.34-44.81L435.34-44.81L435.34-44.81Q436.79-47.72 436.79-50.44L436.79-50.44L436.79-50.44Q436.79-53.16 436.50-54.66L436.50-54.66L436.50-54.66Q436.21-56.16 435.53-57.33L435.53-57.33L435.53-57.33Q434.08-59.85 431.17-59.85L431.17-59.85L431.17-59.85Q427.58-59.85 424.67-57.23L424.67-57.23L424.67-57.23Q421.56-54.51 421.56-50.25L421.56-50.25L421.56-50.25Q421.56-47.53 423.45-45.44L423.45-45.44L423.45-45.44Q425.35-43.36 428.26-41.42L428.26-41.42L428.26-41.42Q431.17-39.48 434.46-37.54L434.46-37.54L434.46-37.54Q437.76-35.60 440.67-33.27L440.67-33.27L440.67-33.27Q447.36-27.94 447.36-20.76L447.36-20.76L447.36-20.76Q447.36-15.91 444.79-11.79L444.79-11.79L444.79-11.79Q442.22-7.66 437.96-4.66L437.96-4.66L437.96-4.66Q428.64 1.94 416.32 1.94L416.32 1.94L416.32 1.94Q406.33 1.94 401.19-1.31L401.19-1.31L401.19-1.31Q396.05-4.56 396.05-9.51L396.05-9.51L396.05-9.51Q396.05-18.33 402.94-20.56L402.94-20.56L402.94-20.56Q404.88-21.24 407.84-21.24L407.84-21.24L407.84-21.24Q410.80-21.24 414.19-19.98L414.19-19.98L414.19-19.98Q412.64-16.00 412.64-12.42L412.64-12.42L412.64-12.42Q412.64-4.66 418.17-4.66L418.17-4.66L418.17-4.66Q421.76-4.66 424.71-7.28L424.71-7.28L424.71-7.28Q427.67-9.89 427.67-12.85L427.67-12.85L427.67-12.85Q427.67-15.81 425.78-17.95L425.78-17.95L425.78-17.95Q423.89-20.08 421.08-21.78L421.08-21.78L421.08-21.78Q418.26-23.47 415.01-25.12L415.01-25.12L415.01-25.12Q411.77-26.77 408.95-29.10L408.95-29.10L408.95-29.10Q402.36-34.44 402.36-42.97L402.36-42.97L402.36-42.97Q402.36-48.50 405.07-52.82L405.07-52.82L405.07-52.82Q407.79-57.13 412.15-60.04L412.15-60.04L412.15-60.04Q420.88-65.96 431.60-65.96L431.60-65.96L431.60-65.96Q442.32-65.96 447.51-62.76L447.51-62.76L447.51-62.76Q452.70-59.56 452.70-54.13L452.70-54.13L452.70-54.13Q452.70-49.37 449.01-46.37L449.01-46.37L449.01-46.37Q445.81-43.84 441.93-43.84L441.93-43.84L441.93-43.84Q438.05-43.84 435.34-44.81ZM492.57-44.81L492.57-44.81L492.57-44.81Q494.02-47.72 494.02-50.44L494.02-50.44L494.02-50.44Q494.02-53.16 493.73-54.66L493.73-54.66L493.73-54.66Q493.44-56.16 492.76-57.33L492.76-57.33L492.76-57.33Q491.31-59.85 488.40-59.85L488.40-59.85L488.40-59.85Q484.81-59.85 481.90-57.23L481.90-57.23L481.90-57.23Q478.79-54.51 478.79-50.25L478.79-50.25L478.79-50.25Q478.79-47.53 480.68-45.44L480.68-45.44L480.68-45.44Q482.58-43.36 485.49-41.42L485.49-41.42L485.49-41.42Q488.40-39.48 491.69-37.54L491.69-37.54L491.69-37.54Q494.99-35.60 497.90-33.27L497.90-33.27L497.90-33.27Q504.59-27.94 504.59-20.76L504.59-20.76L504.59-20.76Q504.59-15.91 502.02-11.79L502.02-11.79L502.02-11.79Q499.45-7.66 495.19-4.66L495.19-4.66L495.19-4.66Q485.87 1.94 473.55 1.94L473.55 1.94L473.55 1.94Q463.56 1.94 458.42-1.31L458.42-1.31L458.42-1.31Q453.28-4.56 453.28-9.51L453.28-9.51L453.28-9.51Q453.28-18.33 460.17-20.56L460.17-20.56L460.17-20.56Q462.11-21.24 465.07-21.24L465.07-21.24L465.07-21.24Q468.03-21.24 471.42-19.98L471.42-19.98L471.42-19.98Q469.87-16.00 469.87-12.42L469.87-12.42L469.87-12.42Q469.87-4.66 475.40-4.66L475.40-4.66L475.40-4.66Q478.99-4.66 481.94-7.28L481.94-7.28L481.94-7.28Q484.90-9.89 484.90-12.85L484.90-12.85L484.90-12.85Q484.90-15.81 483.01-17.95L483.01-17.95L483.01-17.95Q481.12-20.08 478.31-21.78L478.31-21.78L478.31-21.78Q475.49-23.47 472.24-25.12L472.24-25.12L472.24-25.12Q469.00-26.77 466.18-29.10L466.18-29.10L466.18-29.10Q459.59-34.44 459.59-42.97L459.59-42.97L459.59-42.97Q459.59-48.50 462.30-52.82L462.30-52.82L462.30-52.82Q465.02-57.13 469.38-60.04L469.38-60.04L469.38-60.04Q478.11-65.96 488.83-65.96L488.83-65.96L488.83-65.96Q499.55-65.96 504.74-62.76L504.74-62.76L504.74-62.76Q509.93-59.56 509.93-54.13L509.93-54.13L509.93-54.13Q509.93-49.37 506.24-46.37L506.24-46.37L506.24-46.37Q503.04-43.84 499.16-43.84L499.16-43.84L499.16-43.84Q495.28-43.84 492.57-44.81Z" fill="#ffffff"></path></g></g><style>text {
  font-size: 64px;
  font-family: Arial Black;
  dominant-baseline: central;
  text-anchor: middle;
}</style></svg>